<svg width="16" height="16" viewBox="0 0 16 16" fill="none" xmlns="http://www.w3.org/2000/svg">
<path opacity="0.5" d="M6.66667 1.33333C6.35725 1.33333 6.0605 1.45625 5.84171 1.67504C5.62292 1.89383 5.5 2.19058 5.5 2.5C5.5 2.80942 5.62292 3.10617 5.84171 3.32496C6.0605 3.54375 6.35725 3.66667 6.66667 3.66667H9.33333C9.64275 3.66667 9.9395 3.54375 10.1583 3.32496C10.3771 3.10617 10.5 2.80942 10.5 2.5C10.5 2.19058 10.3771 1.89383 10.1583 1.67504C9.9395 1.45625 9.64275 1.33333 9.33333 1.33333H6.66667ZM2.57533 10.8033C2.00333 8.51533 1.71733 7.372 2.318 6.60267C2.91867 5.83333 4.098 5.83333 6.456 5.83333H9.54267C11.9013 5.83333 13.0807 5.83333 13.6813 6.60267C14.2813 7.37133 13.996 8.516 13.424 10.8033C13.06 12.2587 12.878 12.986 12.3353 13.41C11.7933 13.8333 11.0433 13.8333 9.54333 13.8333H6.45667C4.95667 13.8333 4.206 13.8333 3.66333 13.41C3.12133 12.986 2.93933 12.2587 2.57533 10.8033Z" fill="#0FA958"/>
<path d="M10.3867 3.00133C10.4614 2.84517 10.5003 2.67428 10.5006 2.50115C10.5008 2.32802 10.4623 2.15703 10.388 2.00067C10.8433 2.004 11.1987 2.02467 11.516 2.14867C11.8948 2.29685 12.2243 2.54867 12.4667 2.87533C12.7113 3.20467 12.8267 3.62667 12.984 4.20733L13.0153 4.32067L13.3567 6.29667C13.0847 6.10867 12.7333 5.99667 12.2787 5.93L12.038 4.53867C11.8487 3.84533 11.78 3.62733 11.664 3.47133C11.5335 3.29541 11.356 3.15979 11.152 3.08C11.0053 3.02267 10.828 3.006 10.3867 3.00133ZM5.612 2C5.53756 2.15645 5.49904 2.32756 5.49927 2.50082C5.4995 2.67407 5.53848 2.84508 5.61333 3.00133C5.172 3.006 4.99467 3.02267 4.848 3.08C4.64398 3.15979 4.46654 3.29541 4.336 3.47133C4.22 3.62733 4.15133 3.84533 3.96267 4.538L3.72133 5.93067C3.26733 5.99733 2.916 6.10867 2.64333 6.296L2.98467 4.32133L3.016 4.208C3.174 3.62667 3.28933 3.204 3.53333 2.87467C3.77582 2.54825 4.10526 2.29666 4.484 2.14867C4.80133 2.02467 5.156 2.00333 5.612 2ZM5.83333 8.5C5.83333 8.36739 5.78065 8.24022 5.68689 8.14645C5.59312 8.05268 5.46594 8 5.33333 8C5.20073 8 5.07355 8.05268 4.97978 8.14645C4.88601 8.24022 4.83333 8.36739 4.83333 8.5V11.1667C4.83333 11.2993 4.88601 11.4265 4.97978 11.5202C5.07355 11.614 5.20073 11.6667 5.33333 11.6667C5.46594 11.6667 5.59312 11.614 5.68689 11.5202C5.78065 11.4265 5.83333 11.2993 5.83333 11.1667V8.5ZM10.6667 8C10.7993 8 10.9265 8.05268 11.0202 8.14645C11.114 8.24022 11.1667 8.36739 11.1667 8.5V11.1667C11.1667 11.2993 11.114 11.4265 11.0202 11.5202C10.9265 11.614 10.7993 11.6667 10.6667 11.6667C10.5341 11.6667 10.4069 11.614 10.3131 11.5202C10.2193 11.4265 10.1667 11.2993 10.1667 11.1667V8.5C10.1667 8.36739 10.2193 8.24022 10.3131 8.14645C10.4069 8.05268 10.5341 8 10.6667 8ZM8.5 8.5C8.5 8.36739 8.44732 8.24022 8.35355 8.14645C8.25979 8.05268 8.13261 8 8 8C7.86739 8 7.74022 8.05268 7.64645 8.14645C7.55268 8.24022 7.5 8.36739 7.5 8.5V11.1667C7.5 11.2993 7.55268 11.4265 7.64645 11.5202C7.74022 11.614 7.86739 11.6667 8 11.6667C8.13261 11.6667 8.25979 11.614 8.35355 11.5202C8.44732 11.4265 8.5 11.2993 8.5 11.1667V8.5Z" fill="#0FA958"/>
</svg>
